<svg width="55" height="34" viewBox="0 0 55 34" fill="none" xmlns="http://www.w3.org/2000/svg">
<path d="M1.29176 10.8044L1.69851 26.7993H12.6609L18.1002 25.7386L20.6325 24.2711L25.9003 19.4459L23.9104 12.9618L8.84859 9.4884L1.29176 10.8044Z" fill="white"/>
<g style="mix-blend-mode:multiply">
<mask id="mask0_2_67" style="mask-type:luminance" maskUnits="userSpaceOnUse" x="24" y="0" width="31" height="34">
<path d="M54.7159 0H24.3729V33.9998H54.7159V0Z" fill="white"/>
</mask>
<g mask="url(#mask0_2_67)">
<path d="M26.464 13.994L49.6529 0.67887C52.4363 -0.920227 54.7173 0.399726 54.7173 3.60988V30.4077C54.7173 33.6179 52.4443 34.9259 49.6688 33.3148L36.1862 25.4868L34.8383 24.7052L26.448 19.8321C23.6725 18.2211 23.6805 15.5931 26.46 13.994" fill="#70BA82"/>
</g>
</g>
<path d="M4.32824 16.9633H4.27241C3.93345 16.9633 3.64234 17.0789 3.39909 17.3102C3.15583 17.5415 3.0362 17.8246 3.0362 18.1556V18.5344C3.0362 18.8574 3.15583 19.1366 3.39909 19.3679C3.64234 19.5992 3.93345 19.7148 4.27241 19.7148H4.32824C4.6672 19.7148 4.9583 19.5992 5.20156 19.3679C5.44481 19.1366 5.56445 18.8574 5.56445 18.5344V18.1556C5.56445 17.8246 5.44481 17.5415 5.20156 17.3102C4.9583 17.0789 4.6672 16.9633 4.32824 16.9633Z" fill="#00ABBD"/>
<path d="M15.2779 16.9633H15.222C14.8831 16.9633 14.592 17.0789 14.3487 17.3102C14.1055 17.5415 13.9858 17.8246 13.9858 18.1556V18.5344C13.9858 18.8574 14.1094 19.1366 14.3487 19.3679C14.592 19.5992 14.8831 19.7148 15.222 19.7148H15.2779C15.6168 19.7148 15.9079 19.5992 16.1512 19.3679C16.3944 19.1366 16.5141 18.8574 16.5141 18.5344V18.1556C16.5141 17.8246 16.3944 17.5415 16.1512 17.3102C15.9079 17.0789 15.6168 16.9633 15.2779 16.9633Z" fill="#00ABBD"/>
<path d="M28.2534 13.9933L5.06447 0.678099C2.27702 -0.91701 0 0.398955 0 3.60911V30.403C0 33.6131 2.27303 34.9211 5.04852 33.31L18.5312 25.482V15.8157C18.5312 15.1378 18.7824 14.5556 19.2849 14.073C19.7873 13.5905 20.3975 13.3473 21.1113 13.3473H21.1671C21.8809 13.3473 22.491 13.5865 22.9935 14.073C23.496 14.5556 23.7472 15.1378 23.7472 15.8157V18.4636C23.7472 19.1415 23.496 19.7237 22.9935 20.2062C22.491 20.6887 21.8809 20.932 21.1671 20.932H21.1113C20.7005 20.932 20.3097 20.8403 19.9429 20.6568C19.895 20.6409 19.8751 20.6529 19.8751 20.6967V24.7004L28.2653 19.8274C31.0408 18.2163 31.0368 15.5884 28.2534 13.9933ZM6.91081 18.5353C6.91081 19.2173 6.65559 19.7995 6.15313 20.278C5.65067 20.7605 5.04055 20.9998 4.32673 20.9998H4.27091C3.55709 20.9998 2.94696 20.7605 2.44451 20.282C1.94205 19.8035 1.69082 19.2212 1.69082 18.5433V18.1645C1.69082 17.4826 1.94205 16.9043 2.44451 16.4178C2.94696 15.9353 3.55709 15.6921 4.27091 15.6921H4.32673C4.73747 15.6921 5.12828 15.7838 5.49515 15.9672C5.53902 15.9832 5.56294 15.9672 5.56294 15.9273V15.8755C5.56294 15.5485 5.44331 15.2733 5.20006 15.0381C4.9568 14.8028 4.6657 14.6871 4.32673 14.6871H4.27091C3.93194 14.6871 3.64084 14.8068 3.38961 15.046C3.262 15.1737 3.10648 15.2335 2.92304 15.2335C2.73162 15.2335 2.56813 15.1697 2.43653 15.0421C2.30493 14.9145 2.23714 14.7629 2.23714 14.5875C2.23714 14.412 2.30493 14.2525 2.44451 14.1289C2.94696 13.6463 3.55709 13.4071 4.27091 13.4071H4.32673C5.04055 13.4071 5.65067 13.6463 6.15313 14.1289C6.65559 14.6074 6.91081 15.1896 6.91081 15.8715V18.5433V18.5353ZM9.33139 16.1905L10.9225 17.1077C11.6363 17.5185 11.9952 18.1126 11.9952 18.8942C11.9952 19.0936 11.9673 19.289 11.9115 19.4804C11.7839 19.943 11.5207 20.3139 11.1259 20.597C10.7311 20.8802 10.2845 21.0197 9.78998 21.0197H9.75011C8.9047 21.0197 8.2188 20.6967 7.6964 20.0547C7.60468 19.943 7.55683 19.8114 7.55683 19.6639C7.55683 19.4525 7.64456 19.285 7.82002 19.1535C7.93966 19.0657 8.07923 19.0219 8.23475 19.0219C8.45408 19.0219 8.63353 19.1056 8.7731 19.2691C9.02034 19.5722 9.34734 19.7277 9.75409 19.7277H9.79796C10.0452 19.7277 10.2486 19.6479 10.4121 19.4844C10.5716 19.3249 10.6513 19.1255 10.6513 18.8903C10.6513 18.5872 10.5078 18.3559 10.2247 18.2004L8.64549 17.2872C7.91972 16.8764 7.56082 16.2823 7.56082 15.5007C7.56082 15.3013 7.58873 15.1019 7.64456 14.9145C7.78015 14.4519 8.04334 14.081 8.43015 13.7979C8.81697 13.5147 9.2636 13.3752 9.76606 13.3752H9.80593C10.6553 13.3752 11.3412 13.7022 11.8596 14.3522C11.9514 14.4758 11.9952 14.6034 11.9952 14.743C11.9952 14.9623 11.9035 15.1298 11.7201 15.2534C11.6044 15.3411 11.4688 15.385 11.3213 15.385C11.09 15.385 10.9066 15.3013 10.771 15.1378C10.5237 14.8227 10.1967 14.6672 9.79796 14.6672H9.75409C9.50685 14.6672 9.30348 14.747 9.14396 14.9105C8.98445 15.07 8.9047 15.2694 8.9047 15.5046C8.9047 15.8077 9.04826 16.039 9.33139 16.1945M17.8732 18.5393C17.8732 19.2212 17.622 19.8035 17.1155 20.282C16.6131 20.7645 16.0029 21.0038 15.2891 21.0038H15.2333C14.5195 21.0038 13.9094 20.7645 13.4069 20.286C12.9044 19.8074 12.6532 19.2252 12.6532 18.5473V18.1685C12.6532 17.4866 12.9044 16.9083 13.4069 16.4218C13.9094 15.9393 14.5195 15.6961 15.2333 15.6961H15.2891C15.7039 15.6961 16.0907 15.7878 16.4575 15.9712C16.5054 15.9872 16.5253 15.9712 16.5253 15.9313V15.8795C16.5253 15.5525 16.4017 15.2773 16.1624 15.0421C15.9192 14.8068 15.6281 14.6911 15.2891 14.6911H15.2333C14.8943 14.6911 14.5992 14.8108 14.352 15.05C14.2244 15.1776 14.0689 15.2375 13.8854 15.2375C13.694 15.2375 13.5305 15.1737 13.3989 15.046C13.2673 14.9184 13.1995 14.7669 13.1995 14.5914C13.1995 14.416 13.2673 14.2565 13.4069 14.1328C13.9094 13.6503 14.5195 13.4111 15.2333 13.4111H15.2891C16.0029 13.4111 16.6131 13.6503 17.1155 14.1328C17.618 14.6114 17.8732 15.1936 17.8732 15.8755V18.5473V18.5393Z" fill="#00ABBD"/>
<path d="M21.1069 19.6525H21.1627C21.5017 19.6525 21.7928 19.5369 22.0321 19.3056C22.2753 19.0743 22.3989 18.7912 22.3989 18.4642V15.8083C22.3989 15.4853 22.2753 15.2101 22.0321 14.9749C21.7888 14.7436 21.4977 14.6279 21.1627 14.6279H21.1069C20.7679 14.6279 20.4768 14.7436 20.2336 14.9749C19.9903 15.2062 19.8707 15.4853 19.8707 15.8083V18.4642C19.8707 18.7952 19.9903 19.0743 20.2336 19.3056C20.4768 19.5369 20.7679 19.6525 21.1069 19.6525Z" fill="#00ABBD"/>
<path d="M28.7252 30.1222C28.7252 30.4571 28.454 30.7243 28.123 30.7243C27.792 30.7243 27.5209 30.4532 27.5209 30.1222C27.5209 29.7912 27.788 29.52 28.123 29.52C28.458 29.52 28.7252 29.7912 28.7252 30.1222Z" fill="#A8CE6A"/>
<path d="M24.6662 27.2527C24.6662 27.7951 24.2276 28.2337 23.6852 28.2337C23.1429 28.2337 22.7042 27.7951 22.7042 27.2527C22.7042 26.7104 23.1429 26.2717 23.6852 26.2717C24.2276 26.2717 24.6662 26.7104 24.6662 27.2527Z" fill="#A8CE6A"/>
<path d="M30.4624 25.9848C30.4624 26.6866 29.8961 27.2529 29.1943 27.2529C28.4924 27.2529 27.9262 26.6866 27.9262 25.9848C27.9262 25.2829 28.4924 24.7167 29.1943 24.7167C29.8961 24.7167 30.4624 25.2829 30.4624 25.9848Z" fill="#A8CE6A"/>
<path d="M25.269 4.87359C25.269 5.7509 24.5552 6.46471 23.6779 6.46471C22.8006 6.46471 22.0868 5.75489 22.0868 4.87359C22.0868 3.99229 22.8006 3.28247 23.6779 3.28247C24.5552 3.28247 25.269 3.99628 25.269 4.87359Z" fill="#34C1CF"/>
<path d="M27.3425 9.04972C27.3425 9.59206 26.9039 10.0307 26.3615 10.0307C25.8192 10.0307 25.3806 9.59206 25.3806 9.04972C25.3806 8.50738 25.8192 8.06873 26.3615 8.06873C26.9039 8.06873 27.3425 8.50738 27.3425 9.04972Z" fill="#34C1CF"/>
<path d="M31.8069 5.85819C31.8069 6.40053 31.3682 6.83918 30.8259 6.83918C30.2835 6.83918 29.8449 6.40053 29.8449 5.85819C29.8449 5.31585 30.2835 4.8772 30.8259 4.8772C31.3682 4.8772 31.8069 5.31585 31.8069 5.85819Z" fill="#34C1CF"/>
<path d="M34.0772 14.1761C34.6195 13.6617 35.2695 13.4025 36.0392 13.4025H36.099C36.8646 13.4025 37.5186 13.6617 38.061 14.1801C38.2085 14.3117 38.2843 14.4752 38.2843 14.6746C38.2843 14.874 38.2125 15.0255 38.0689 15.1611C37.9254 15.2967 37.7499 15.3644 37.5426 15.3644C37.3352 15.3644 37.1797 15.2967 37.0401 15.1611C36.7769 14.9019 36.4579 14.7743 36.095 14.7743H36.0352C35.6723 14.7743 35.3612 14.8979 35.0981 15.1491C34.8388 15.4003 34.7073 15.6994 34.7073 16.0464V17.0832V17.3224V18.3593C34.7073 18.7102 34.8349 19.0093 35.0981 19.2565C35.3573 19.5077 35.6723 19.6314 36.0352 19.6314H36.095C36.4579 19.6314 36.7729 19.5038 37.0401 19.2446C37.1797 19.109 37.3432 19.0412 37.5426 19.0412C37.7499 19.0412 37.9254 19.109 38.0689 19.2446C38.2125 19.3801 38.2843 19.5436 38.2843 19.7311C38.2843 19.9185 38.2085 20.094 38.061 20.2255C37.5186 20.744 36.8646 21.0032 36.099 21.0032H36.0392C35.2735 21.0032 34.6195 20.744 34.0772 20.2295C33.5388 19.7151 33.2637 19.089 33.2637 18.3593V16.0424C33.2637 15.3126 33.5348 14.6905 34.0772 14.1721" fill="white"/>
<path d="M40.9648 16.2178L42.5559 17.135C43.2697 17.5458 43.6286 18.1399 43.6286 18.9215C43.6286 19.1209 43.6007 19.3163 43.5449 19.5077C43.4173 19.9663 43.1541 20.3412 42.7593 20.6243C42.3645 20.9075 41.9179 21.047 41.4234 21.047H41.3835C40.5381 21.047 39.8522 20.728 39.3298 20.082C39.2381 19.9703 39.1902 19.8387 39.1902 19.6912C39.1902 19.4838 39.278 19.3123 39.4534 19.1807C39.5731 19.093 39.7086 19.0492 39.8682 19.0492C40.0875 19.0492 40.2669 19.1329 40.4065 19.2964C40.6537 19.5995 40.9807 19.755 41.3875 19.755H41.4274C41.6746 19.755 41.882 19.6752 42.0415 19.5157C42.201 19.3522 42.2808 19.1568 42.2808 18.9215C42.2808 18.6185 42.1372 18.3872 41.8541 18.2277L40.2749 17.3145C39.5531 16.9077 39.1902 16.3096 39.1902 15.5279C39.1902 15.3286 39.2181 15.1332 39.274 14.9417C39.4096 14.4792 39.6727 14.1083 40.0596 13.8252C40.4464 13.542 40.893 13.4025 41.3955 13.4025H41.4393C42.2887 13.4025 42.9746 13.7295 43.493 14.3795C43.5848 14.5031 43.6286 14.6307 43.6286 14.7703C43.6286 14.9856 43.5369 15.1571 43.3535 15.2807C43.2338 15.3684 43.1022 15.4123 42.9547 15.4123C42.7234 15.4123 42.54 15.3286 42.4044 15.1651C42.1571 14.85 41.8301 14.6945 41.4274 14.6945H41.3875C41.1402 14.6945 40.9369 14.7743 40.7774 14.9378C40.6179 15.0973 40.5381 15.2967 40.5381 15.5319C40.5381 15.835 40.6817 16.0663 40.9648 16.2218" fill="white"/>
<path d="M48.9183 14.1214C48.4158 13.6429 47.8057 13.3997 47.0919 13.3997H47.036C47.0001 13.3997 46.9643 13.3997 46.9244 13.4036C46.2584 13.4276 45.6842 13.6629 45.2096 14.1175C44.7072 14.596 44.452 15.1782 44.452 15.8601V18.5319C44.452 18.5559 44.452 18.5718 44.452 18.5957V30.2719L45.7958 31.0535V20.7053C46.1667 20.9007 46.5774 20.9964 47.032 20.9964H47.0879C47.1278 20.9964 47.1636 20.9964 47.1995 20.9924C47.8655 20.9685 48.4397 20.7292 48.9143 20.2786C49.4167 19.8 49.672 19.2178 49.672 18.5359V15.8641C49.672 15.1822 49.4207 14.604 48.9143 14.1214M48.3241 18.512C48.3241 18.843 48.2005 19.1221 47.9612 19.3534C47.7179 19.5847 47.4268 19.7003 47.0879 19.7003H47.032C46.6931 19.7003 46.402 19.5847 46.1587 19.3534C45.9155 19.1221 45.7958 18.839 45.7958 18.512V15.8561C45.7958 15.5331 45.9155 15.258 46.1587 15.0227C46.402 14.7914 46.6931 14.6757 47.032 14.6757H47.0879C47.4268 14.6757 47.7179 14.7914 47.9612 15.0227C48.2045 15.254 48.3241 15.5331 48.3241 15.8561V18.512Z" fill="white"/>
</svg>
