<svg width="21" height="23" viewBox="0 0 21 23" fill="none" xmlns="http://www.w3.org/2000/svg">
<path d="M0 19.7713C0 20.6277 0.340212 21.449 0.945793 22.0546C1.55137 22.6602 2.37272 23.0004 3.22914 23.0004H17.7709C18.6273 23.0004 19.4486 22.6602 20.0542 22.0546C20.6598 21.449 21 20.6277 21 19.7713V6.84766H0V19.7713Z" fill="url(#paint0_linear_2_98)"/>
<path d="M5.09446 10.0758H4.64224C3.86176 10.0758 3.22905 10.7085 3.22905 11.489V11.9412C3.22905 12.7217 3.86176 13.3544 4.64224 13.3544H5.09446C5.87494 13.3544 6.50765 12.7217 6.50765 11.9412V11.489C6.50765 10.7085 5.87494 10.0758 5.09446 10.0758Z" fill="url(#paint1_linear_2_98)"/>
<path d="M10.7472 10.0758H10.2949C9.51445 10.0758 8.88174 10.7085 8.88174 11.489V11.9412C8.88174 12.7217 9.51445 13.3544 10.2949 13.3544H10.7472C11.5276 13.3544 12.1603 12.7217 12.1603 11.9412V11.489C12.1603 10.7085 11.5276 10.0758 10.7472 10.0758Z" fill="url(#paint2_linear_2_98)"/>
<path d="M16.3999 10.0758H15.9476C15.1672 10.0758 14.5344 10.7085 14.5344 11.489V11.9412C14.5344 12.7217 15.1672 13.3544 15.9476 13.3544H16.3999C17.1803 13.3544 17.813 12.7217 17.813 11.9412V11.489C17.813 10.7085 17.1803 10.0758 16.3999 10.0758Z" fill="url(#paint3_linear_2_98)"/>
<path d="M5.09446 16.4919H4.64224C3.86176 16.4919 3.22905 17.1246 3.22905 17.9051V18.3574C3.22905 19.1378 3.86176 19.7705 4.64224 19.7705H5.09446C5.87494 19.7705 6.50765 19.1378 6.50765 18.3574V17.9051C6.50765 17.1246 5.87494 16.4919 5.09446 16.4919Z" fill="url(#paint4_linear_2_98)"/>
<path d="M10.7472 16.4919H10.2949C9.51445 16.4919 8.88174 17.1246 8.88174 17.9051V18.3574C8.88174 19.1378 9.51445 19.7705 10.2949 19.7705H10.7472C11.5276 19.7705 12.1603 19.1378 12.1603 18.3574V17.9051C12.1603 17.1246 11.5276 16.4919 10.7472 16.4919Z" fill="url(#paint5_linear_2_98)"/>
<path d="M16.3999 16.4919H15.9476C15.1672 16.4919 14.5344 17.1246 14.5344 17.9051V18.3574C14.5344 19.1378 15.1672 19.7705 15.9476 19.7705H16.3999C17.1803 19.7705 17.813 19.1378 17.813 18.3574V17.9051C17.813 17.1246 17.1803 16.4919 16.3999 16.4919Z" fill="url(#paint6_linear_2_98)"/>
<path d="M17.7709 2.00684C18.6273 2.00684 19.4486 2.34705 20.0542 2.95263C20.6598 3.55821 21 4.37955 21 5.23597V6.84701H0V5.23597C0 4.37955 0.340212 3.55821 0.945793 2.95263C1.55137 2.34705 2.37272 2.00684 3.22914 2.00684H17.7709Z" fill="url(#paint7_linear_2_98)"/>
<path d="M5.65282 4.42308C5.43919 4.42308 5.2343 4.33821 5.08324 4.18715C4.93217 4.03608 4.84731 3.8312 4.84731 3.61756V1.19394C4.84731 0.979365 4.93254 0.77358 5.08427 0.621853C5.236 0.470127 5.44178 0.384888 5.65636 0.384888C5.87093 0.384888 6.07672 0.470127 6.22844 0.621853C6.38017 0.77358 6.46541 0.979365 6.46541 1.19394V3.61756C6.46541 3.72394 6.44434 3.82927 6.40342 3.92746C6.3625 4.02565 6.30253 4.11477 6.22698 4.18966C6.15143 4.26455 6.0618 4.32374 5.96325 4.3638C5.8647 4.40386 5.7592 4.42401 5.65282 4.42308Z" fill="url(#paint8_linear_2_98)"/>
<path d="M10.5001 4.42308C10.2865 4.42308 10.0816 4.33821 9.93053 4.18715C9.77946 4.03608 9.6946 3.8312 9.6946 3.61756V1.19394C9.6946 0.979365 9.77983 0.77358 9.93156 0.621853C10.0833 0.470127 10.2891 0.384888 10.5036 0.384888C10.7182 0.384888 10.924 0.470127 11.0757 0.621853C11.2275 0.77358 11.3127 0.979365 11.3127 1.19394V3.61756C11.3127 3.72394 11.2916 3.82927 11.2507 3.92746C11.2098 4.02565 11.1498 4.11477 11.0743 4.18966C10.9987 4.26455 10.9091 4.32374 10.8105 4.3638C10.712 4.40386 10.6065 4.42401 10.5001 4.42308Z" fill="url(#paint9_linear_2_98)"/>
<path d="M15.3474 4.42308C15.1338 4.42308 14.9289 4.33821 14.7778 4.18715C14.6268 4.03608 14.5419 3.8312 14.5419 3.61756V1.19394C14.5419 0.979365 14.6271 0.77358 14.7789 0.621853C14.9306 0.470127 15.1364 0.384888 15.351 0.384888C15.5655 0.384888 15.7713 0.470127 15.923 0.621853C16.0748 0.77358 16.16 0.979365 16.16 1.19394V3.61756C16.16 3.72394 16.1389 3.82927 16.098 3.92746C16.0571 4.02565 15.9971 4.11477 15.9216 4.18966C15.846 4.26455 15.7564 4.32374 15.6578 4.3638C15.5593 4.40386 15.4538 4.42401 15.3474 4.42308Z" fill="url(#paint10_linear_2_98)"/>
<defs>
<linearGradient id="paint0_linear_2_98" x1="10.5" y1="23.0004" x2="10.5" y2="6.84766" gradientUnits="userSpaceOnUse">
<stop stop-color="#FF8B51"/>
<stop offset="1" stop-color="#D23E3F"/>
</linearGradient>
<linearGradient id="paint1_linear_2_98" x1="3.22905" y1="11.7222" x2="6.51472" y2="11.7222" gradientUnits="userSpaceOnUse">
<stop stop-color="#F6F0EA"/>
<stop offset="1" stop-color="#F1DFD1"/>
</linearGradient>
<linearGradient id="paint2_linear_2_98" x1="8.88174" y1="11.7222" x2="12.1674" y2="11.7222" gradientUnits="userSpaceOnUse">
<stop stop-color="#F6F0EA"/>
<stop offset="1" stop-color="#F1DFD1"/>
</linearGradient>
<linearGradient id="paint3_linear_2_98" x1="14.5344" y1="11.7222" x2="17.8201" y2="11.7222" gradientUnits="userSpaceOnUse">
<stop stop-color="#F6F0EA"/>
<stop offset="1" stop-color="#F1DFD1"/>
</linearGradient>
<linearGradient id="paint4_linear_2_98" x1="3.22905" y1="18.1312" x2="6.51472" y2="18.1312" gradientUnits="userSpaceOnUse">
<stop stop-color="#F6F0EA"/>
<stop offset="1" stop-color="#F1DFD1"/>
</linearGradient>
<linearGradient id="paint5_linear_2_98" x1="8.88174" y1="18.1312" x2="12.1674" y2="18.1312" gradientUnits="userSpaceOnUse">
<stop stop-color="#F6F0EA"/>
<stop offset="1" stop-color="#F1DFD1"/>
</linearGradient>
<linearGradient id="paint6_linear_2_98" x1="14.5344" y1="18.1312" x2="17.8201" y2="18.1312" gradientUnits="userSpaceOnUse">
<stop stop-color="#F6F0EA"/>
<stop offset="1" stop-color="#F1DFD1"/>
</linearGradient>
<linearGradient id="paint7_linear_2_98" x1="10.5" y1="2.00684" x2="10.5" y2="6.84701" gradientUnits="userSpaceOnUse">
<stop stop-color="#F6F0EA"/>
<stop offset="1" stop-color="#F1DFD1"/>
</linearGradient>
<linearGradient id="paint8_linear_2_98" x1="5.65282" y1="0.388421" x2="5.65282" y2="4.42308" gradientUnits="userSpaceOnUse">
<stop stop-color="#FEB692"/>
<stop offset="1" stop-color="#EA5455"/>
</linearGradient>
<linearGradient id="paint9_linear_2_98" x1="10.5001" y1="0.388421" x2="10.5001" y2="4.42308" gradientUnits="userSpaceOnUse">
<stop stop-color="#FEB692"/>
<stop offset="1" stop-color="#EA5455"/>
</linearGradient>
<linearGradient id="paint10_linear_2_98" x1="15.3474" y1="0.388421" x2="15.3474" y2="4.42308" gradientUnits="userSpaceOnUse">
<stop stop-color="#FEB692"/>
<stop offset="1" stop-color="#EA5455"/>
</linearGradient>
</defs>
</svg>
