<svg width="21" height="18" viewBox="0 0 21 18" fill="none" xmlns="http://www.w3.org/2000/svg">
<path d="M6.00711 1H15.0047C15.6223 1 16.1734 1.01903 16.6674 1.08554C19.2992 1.38007 20.0118 2.61521 20.0118 5.99763V12.0024C20.0118 15.3848 19.2992 16.6199 16.6674 16.9145C16.1734 16.981 15.6318 17 15.0047 17H6.00711C5.38953 17 4.83846 16.981 4.3444 16.9145C1.71258 16.6199 1 15.3848 1 12.0024V5.99763C1 2.61521 1.71258 1.38007 4.3444 1.08554C4.83846 1.01903 5.38953 1 6.00711 1Z" stroke="#0891A4" stroke-width="1.5" stroke-linecap="round" stroke-linejoin="round"/>
<path d="M12.0116 5.00476H15.508" stroke="#0891A4" stroke-width="1.5" stroke-linecap="round" stroke-linejoin="round"/>
<path d="M5.51294 10.5059H5.53193H15.5177" stroke="#0891A4" stroke-width="1.5" stroke-linecap="round" stroke-linejoin="round"/>
</svg>
