<svg width="21" height="22" viewBox="0 0 21 22" fill="none" xmlns="http://www.w3.org/2000/svg">
<path d="M10.505 0.000408265C10.661 -0.00532217 10.7958 0.04969 10.9336 0.139085C14.0756 2.17683 17.2196 4.20999 20.3646 6.24315C20.6757 6.44371 20.9948 6.63053 20.9999 7.11647C21.006 7.60929 20.6838 7.78578 20.3717 7.98749C17.2277 10.0207 14.0847 12.0573 10.9437 14.0973C10.6529 14.2864 10.3814 14.2956 10.0875 14.1042C6.91715 12.0446 3.74577 9.98971 0.573375 7.93363C-0.185528 7.44196 -0.193634 6.80588 0.564256 6.31306C3.73361 4.25812 6.90702 2.20548 10.0764 0.147107C10.2132 0.0588587 10.3489 0.000408265 10.505 0.000408265ZM18.9107 7.1222C16.1405 5.32742 13.4646 3.60027 10.7968 1.85707C10.5425 1.69089 10.3702 1.76997 10.1534 1.91094C7.64161 3.54297 5.12578 5.16583 2.614 6.799C2.46709 6.89527 2.27153 6.94226 2.18744 7.17721C4.89476 8.92385 7.58791 10.6556 10.2719 12.4045C10.5222 12.5673 10.6762 12.4423 10.8647 12.3209C12.4443 11.302 14.0259 10.2854 15.6055 9.26538C16.6826 8.56971 17.7586 7.87059 18.9096 7.12449L18.9107 7.1222Z" fill="#2B2A2A"/>
<path d="M0.705084 9.97294C0.905641 9.94952 1.07277 10.0888 1.24801 10.2047C4.19964 12.1575 7.15532 14.1043 10.1009 16.0699C10.4007 16.2701 10.6195 16.2584 10.9142 16.0629C13.8608 14.0985 16.8165 12.1539 19.7651 10.1965C20.0599 10.001 20.3495 9.86992 20.6666 10.0713C21.1396 10.3721 21.1052 11.1483 20.5896 11.4972C19.5726 12.1855 18.5425 12.8493 17.5195 13.526C15.3275 14.9753 13.1335 16.4235 10.9456 17.881C10.6539 18.0753 10.3906 18.1046 10.0928 17.9067C6.87981 15.7749 3.66381 13.6513 0.44983 11.5194C9.56814e-05 11.2209 -0.122467 10.7245 0.127723 10.2996C0.262441 10.0713 0.452868 9.96943 0.706097 9.97294H0.705084Z" fill="#2B2A2A"/>
<path d="M10.4832 21.8366C10.3252 21.8454 10.1935 21.7783 10.0577 21.6936C6.98918 19.7827 3.91862 17.8773 0.848063 15.9697C0.686988 15.8696 0.522874 15.7751 0.369903 15.6629C-0.000873736 15.3892 -0.106231 14.9802 0.114614 14.6239C0.358759 14.2314 0.688001 14.1336 1.07701 14.3743C2.43855 15.2166 3.79807 16.061 5.1586 16.9054C6.82507 17.94 8.49559 18.9691 10.155 20.0191C10.4285 20.1928 10.625 20.1653 10.8874 20.0015C13.8364 18.1577 16.7915 16.327 19.7465 14.4964C19.9623 14.3634 20.172 14.1786 20.4506 14.2655C20.7322 14.3535 20.9308 14.547 20.9855 14.8614C21.0503 15.2297 20.8933 15.5035 20.6046 15.6849C19.7455 16.227 18.8834 16.7646 18.0213 17.3001C15.668 18.7613 13.3126 20.2203 10.9593 21.6826C10.8094 21.7761 10.6615 21.853 10.4842 21.8377L10.4832 21.8366Z" fill="#2B2A2A"/>
</svg>
