<svg width="21" height="21" viewBox="0 0 21 21" fill="none" xmlns="http://www.w3.org/2000/svg">
<path d="M19.7539 6.2861L13.1334 0.908527C11.6396 -0.302842 9.26151 -0.302842 7.76772 0.908527L1.14723 6.2861C0.418262 6.8748 0 7.73521 0 8.65223V17.7998C0 19.5206 1.46989 20.9131 3.28634 20.9131H17.6267C19.4432 20.9131 20.9131 19.5206 20.9131 17.7998V8.65223C20.9131 7.74653 20.4948 6.8748 19.7659 6.2861H19.7539ZM13.1334 19.2149H7.75577V14.4034C7.75577 13.6222 8.42499 12.9882 9.24956 12.9882H11.6396C12.4642 12.9882 13.1334 13.6222 13.1334 14.4034V19.2149ZM19.1086 17.7998C19.1086 18.5809 18.4394 19.2149 17.6148 19.2149H14.926V14.4034C14.926 12.6826 13.4561 11.2901 11.6396 11.2901H9.24956C7.43311 11.2901 5.96322 12.6826 5.96322 14.4034V19.2149H3.27439C2.44982 19.2149 1.7806 18.5809 1.7806 17.7998V8.65223C1.7806 8.23334 1.97181 7.84842 2.30642 7.57672L8.9269 2.19914C9.34516 1.85951 9.88293 1.66705 10.4446 1.66705C11.0063 1.66705 11.544 1.85951 11.9623 2.19914L18.5828 7.57672C18.9174 7.84842 19.1086 8.23334 19.1086 8.65223V17.7998Z" fill="#FF7A2F"/>
</svg>
