<svg width="21" height="18" viewBox="0 0 21 18" fill="none" xmlns="http://www.w3.org/2000/svg">
<path d="M2.9793 17.15H17.8647C19.0473 17.15 19.9733 16.1999 19.9733 15V5.40002C19.9733 4.20015 19.0473 3.25002 17.8647 3.25002H2.9793C1.79669 3.25002 0.870691 4.20015 0.870691 5.40002V15C0.870691 16.1999 1.79669 17.15 2.9793 17.15ZM1.95413 5.40002C1.95413 4.83989 2.43833 4.35002 2.9793 4.35002H17.8647C18.4057 4.35002 18.8899 4.83989 18.8899 5.40002V15C18.8899 15.5601 18.4057 16.05 17.8647 16.05H2.9793C2.43833 16.05 1.95413 15.5601 1.95413 15V5.40002Z" fill="#0891A4" stroke="#0891A4" stroke-width="0.3"/>
<path d="M12.6222 3.79999C12.6222 3.95315 12.6728 4.09284 12.7728 4.19494C12.8731 4.29732 13.0114 4.34999 13.164 4.34999C13.3165 4.34999 13.4549 4.29732 13.5551 4.19494C13.6551 4.09284 13.7057 3.95315 13.7057 3.79999V2.2C13.7057 1.48013 13.0931 0.85 12.3805 0.85H8.46331C7.75077 0.85 7.13815 1.48013 7.13815 2.2V3.79999C7.13815 3.95315 7.18871 4.09284 7.2887 4.19494C7.38896 4.29732 7.52731 4.34999 7.67987 4.34999C7.83243 4.34999 7.97077 4.29732 8.07104 4.19494C8.17102 4.09284 8.22159 3.95315 8.22159 3.79999V2.2C8.22159 2.11315 8.24937 2.05285 8.28648 2.01495C8.32332 1.97733 8.38084 1.95 8.46331 1.95H12.3805C12.463 1.95 12.5205 1.97733 12.5574 2.01495C12.5945 2.05285 12.6222 2.11315 12.6222 2.2V3.79999Z" fill="#0891A4" stroke="#0891A4" stroke-width="0.3"/>
<path d="M10.2153 10.7413L10.2396 10.7499H10.2655H10.2659H10.2664H10.2668H10.2673H10.2677H10.2682H10.2686H10.2691H10.2695H10.27H10.2704H10.2708H10.2713H10.2717H10.2722H10.2726H10.273H10.2734H10.2739H10.2743H10.2747H10.2751H10.2756H10.276H10.2764H10.2768H10.2772H10.2776H10.2781H10.2785H10.2789H10.2793H10.2797H10.2801H10.2805H10.2809H10.2813H10.2817H10.2821H10.2825H10.2829H10.2833H10.2836H10.284H10.2844H10.2848H10.2852H10.2856H10.2859H10.2863H10.2867H10.2871H10.2875H10.2878H10.2882H10.2886H10.2889H10.2893H10.2897H10.29H10.2904H10.2908H10.2911H10.2915H10.2918H10.2922H10.2926H10.2929H10.2933H10.2936H10.294H10.2943H10.2947H10.295H10.2953H10.2957H10.296H10.2964H10.2967H10.2971H10.2974H10.2977H10.2981H10.2984H10.2987H10.2991H10.2994H10.2997H10.3H10.3004H10.3007H10.301H10.3013H10.3017H10.302H10.3023H10.3026H10.3029H10.3033H10.3036H10.3039H10.3042H10.3045H10.3048H10.3051H10.3054H10.3058H10.3061H10.3064H10.3067H10.307H10.3073H10.3076H10.3079H10.3082H10.3085H10.3088H10.3091H10.3094H10.3097H10.31H10.3102H10.3105H10.3108H10.3111H10.3114H10.3117H10.312H10.3123H10.3126H10.3128H10.3131H10.3134H10.3137H10.314H10.3143H10.3145H10.3148H10.3151H10.3154H10.3156H10.3159H10.3162H10.3165H10.3167H10.317H10.3173H10.3176H10.3178H10.3181H10.3184H10.3186H10.3189H10.3192H10.3194H10.3197H10.32H10.3202H10.3205H10.3207H10.321H10.3213H10.3215H10.3218H10.322H10.3223H10.3226H10.3228H10.3231H10.3233H10.3236H10.3238H10.3241H10.3243H10.3246H10.3249H10.3251H10.3254H10.3256H10.3259H10.3261H10.3264H10.3266H10.3269H10.3271H10.3273H10.3276H10.3278H10.3281H10.3283H10.3286H10.3288H10.3291H10.3293H10.3295H10.3298H10.33H10.3303H10.3305H10.3308H10.331H10.3312H10.3315H10.3317H10.332H10.3322H10.3324H10.3327H10.3329H10.3331H10.3334H10.3336H10.3338H10.3341H10.3343H10.3346H10.3348H10.335H10.3353H10.3355H10.3357H10.336H10.3362H10.3364H10.3367H10.3369H10.3371H10.3374H10.3376H10.3378H10.3381H10.3383H10.3385H10.3387H10.339H10.3392H10.3394H10.3397H10.3399H10.3401H10.3404H10.3406H10.3408H10.3411H10.3413H10.3415H10.3417H10.342H10.3422H10.3424H10.3427H10.3429H10.3431H10.3434H10.3436H10.3438H10.344H10.3443H10.3445H10.3447H10.345H10.3452H10.3454H10.3456H10.3459H10.3461H10.3463H10.3466H10.3468H10.347H10.3473H10.3475H10.3477H10.3479H10.3482H10.3484H10.3486H10.3489H10.3491H10.3493H10.3496H10.3498H10.35H10.3503H10.3505H10.3507H10.351H10.3512H10.3514H10.3517H10.3519H10.3521H10.3524H10.3526H10.3528H10.3531H10.3533H10.3535H10.3538H10.354H10.3542H10.3545H10.3547H10.355H10.3552H10.3554H10.3557H10.3559H10.3562H10.3564H10.3566H10.3569H10.3571H10.3574H10.3576H10.3578H10.3581H10.3583H10.3586H10.3588H10.3591H10.3593H10.3595H10.3598H10.36H10.3603H10.3605H10.3608H10.361H10.3613H10.3615H10.3618H10.362H10.3623H10.3625H10.3628H10.363H10.3633H10.3635H10.3638H10.364H10.3643H10.3645H10.3648H10.3651H10.3653H10.3656H10.3658H10.3661H10.3664H10.3666H10.3669H10.3671H10.3674H10.3677H10.3679H10.3682H10.3685H10.3687H10.369H10.3693H10.3695H10.3698H10.3701H10.3703H10.3706H10.3709H10.3712H10.3714H10.3717H10.372H10.3723H10.3725H10.3728H10.3731H10.3734H10.3737H10.3739H10.3742H10.3745H10.3748H10.3751H10.3754H10.3756H10.3759H10.3762H10.3765H10.3768H10.3771H10.3774H10.3777H10.378H10.3783H10.3786H10.3789H10.3791H10.3794H10.3797H10.38H10.3803H10.3807H10.381H10.3813H10.3816H10.3819H10.3822H10.3825H10.3828H10.3831H10.3834H10.3837H10.384H10.3844H10.3847H10.385H10.3853H10.3856H10.386H10.3863H10.3866H10.3869H10.3873H10.3876H10.3879H10.3882H10.3886H10.3889H10.3892H10.3896H10.3899H10.3902H10.3906H10.3909H10.3913H10.3916H10.3919H10.3923H10.3926H10.393H10.3933H10.3937H10.394H10.3944H10.3947H10.3951H10.3954H10.3958H10.3961H10.3965H10.3969H10.3972H10.3976H10.398H10.3983H10.3987H10.3991H10.3994H10.3998H10.4002H10.4005H10.4009H10.4013H10.4017H10.4021H10.4024H10.4028H10.4032H10.4036H10.404H10.4044H10.4048H10.4052H10.4055H10.4059H10.4063H10.4067H10.4071H10.4075H10.4079H10.4083H10.4088H10.4092H10.4096H10.41H10.4104H10.4108H10.4112H10.4116H10.4121H10.4125H10.4129H10.4133H10.4137H10.4142H10.4146H10.415H10.4155H10.4159H10.4163H10.4168H10.4172H10.4177H10.4181H10.4185H10.419H10.4194H10.4199H10.4203H10.4208H10.4212H10.4217H10.4222L10.426 10.7499C10.4418 10.75 10.4645 10.75 10.4844 10.7477C10.505 10.7454 10.5559 10.7378 10.5979 10.6949C10.6185 10.6738 10.6306 10.6507 10.6378 10.6303L19.5584 7.46194C19.5587 7.46184 19.5591 7.46173 19.5594 7.46162C19.6991 7.41387 19.8173 7.33361 19.8798 7.20591C19.9422 7.07849 19.9339 6.93493 19.8877 6.7934C19.8416 6.65217 19.7636 6.53098 19.6371 6.46635C19.5099 6.40141 19.3666 6.41034 19.2267 6.45795L19.2267 6.45792L19.2241 6.45888L10.4222 9.64044L1.62024 6.45888L1.62025 6.45885L1.61758 6.45795C1.45412 6.40231 1.29433 6.43189 1.16808 6.49635C1.0441 6.55965 0.940911 6.66209 0.886122 6.77398L0.881503 6.78341L0.878244 6.7934C0.824648 6.95758 0.852955 7.11817 0.915501 7.24591C0.976922 7.37135 1.07695 7.47701 1.18766 7.53354L1.19641 7.53801L1.20567 7.54129L10.2153 10.7413Z" fill="#0891A4" stroke="#0891A4" stroke-width="0.3"/>
</svg>
