<svg width="15" height="15" viewBox="0 0 15 15" fill="none" xmlns="http://www.w3.org/2000/svg">
<path d="M7.01482 2.01922C4.95741 2.01922 2.90037 2.02017 0.842961 2.01827C0.339658 2.01779 -0.0124352 1.57309 0.00400068 0.969226C0.0178799 0.460382 0.330892 0.0394342 0.722431 0.00475111C0.776852 0 0.832004 0 0.886425 0C4.97677 0 9.06711 0 13.1571 0C13.622 0 13.919 0.275564 14.0132 0.790584C14.1199 1.37212 13.7919 1.96268 13.3324 2.01162C13.2539 2.02017 13.1743 2.01827 13.0954 2.01827C11.0686 2.01827 9.04154 2.01827 7.01482 2.01827V2.01922Z" fill="#2B2A2A"/>
<path d="M4.95312 8.10198C2.90192 8.10198 2.89607 8.10293 0.844876 8.10103C0.340477 8.10103 -0.0119812 7.65871 0.0037242 7.05484C0.0168729 6.54552 0.329155 6.12315 0.719964 6.08751C0.774385 6.08276 0.829536 6.08276 0.884322 6.08276C4.97467 6.08276 2.81901 6.08276 6.90935 6.08276C7.3754 6.08276 7.67161 6.35643 7.76731 6.8705C7.87505 7.45156 7.54816 8.04355 7.08905 8.09438C7.01052 8.10293 6.9309 8.10103 6.85201 8.10103C4.81907 8.10103 6.98642 8.10103 4.95348 8.10103L4.95312 8.10198Z" fill="#2B2A2A"/>
<path d="M7.00741 14.1843C4.95621 14.1843 2.90501 14.1847 0.853811 14.1843C0.408946 14.1843 0.111274 13.8968 0.0192333 13.3875C-0.0837649 12.8174 0.239474 12.2306 0.688722 12.1741C0.748987 12.1665 0.810347 12.1665 0.870977 12.1665C4.96716 12.1665 9.06372 12.166 13.1599 12.1665C13.6219 12.1665 13.92 12.4468 14.0124 12.9637C14.1146 13.5353 13.7925 14.1211 13.3429 14.1771C13.2644 14.1866 13.1847 14.1852 13.1059 14.1852C11.0729 14.1852 9.03998 14.1852 7.00704 14.1852L7.00741 14.1843Z" fill="#2B2A2A"/>
</svg>
