<svg width="17" height="20" viewBox="0 0 17 20" fill="none" xmlns="http://www.w3.org/2000/svg">
<path d="M11.7228 8.29121L11.7228 8.29121C12.6076 7.45589 13.0575 6.43198 13.0575 5.24987C13.0575 4.06816 12.6077 3.04411 11.7227 2.20853L11.7227 2.20852C10.8377 1.37343 9.75423 0.95 8.5049 0.95C7.2553 0.95 6.17196 1.37343 5.28713 2.20866C4.40221 3.04398 3.95235 4.06803 3.95235 5.24987C3.95235 6.43198 4.40221 7.45603 5.28713 8.29135L5.28714 8.29135C6.17225 9.12644 7.25572 9.55001 8.5049 9.55001C9.75437 9.55001 10.8378 9.12657 11.7228 8.29121ZM6.13049 3.01253C6.79254 2.38761 7.56799 2.08406 8.5049 2.08406C9.44168 2.08406 10.2173 2.3876 10.8795 3.01253C11.5414 3.6375 11.862 4.36831 11.862 5.24987C11.862 6.1317 11.5414 6.86236 10.8795 7.48734C10.2173 8.1124 9.44168 8.41594 8.5049 8.41594C7.56828 8.41594 6.79283 8.11227 6.13049 7.48734C5.4684 6.8625 5.14782 6.1317 5.14782 5.24987C5.14782 4.36831 5.4684 3.63751 6.13049 3.01253Z" fill="#0891A4" stroke="#474747" stroke-width="0.1"/>
<path d="M15.8756 13.5843L15.8756 13.5843C15.9482 13.9982 15.9976 14.3906 16.022 14.7507M15.8756 13.5843L16.022 14.7507M15.8756 13.5843C15.8023 13.1669 15.7078 12.7719 15.5945 12.4105L15.5945 12.4105M15.8756 13.5843L15.5945 12.4105M16.022 14.7507C16.0461 15.1019 16.0584 15.4682 16.0585 15.8395V15.8396C16.0585 16.8101 15.7562 17.6008 15.1561 18.1841L15.1212 18.1483M16.022 14.7507L15.1212 18.1483M15.1212 18.1483L15.1561 18.1841C14.5638 18.7598 13.7814 19.05 12.8352 19.05H4.17329C3.22682 19.05 2.44447 18.7598 1.85231 18.1841M15.1212 18.1483L1.85231 18.1841M15.5945 12.4105C15.4771 12.0361 15.3178 11.6664 15.1206 11.3123M15.5945 12.4105L15.0769 11.3367M13.3696 9.69395L13.3696 9.69396C13.7709 9.85643 14.1189 10.0795 14.4035 10.3578M13.3696 9.69395L14.3686 10.3935M13.3696 9.69395C12.9686 9.5319 12.5251 9.45014 12.0517 9.45014C11.8517 9.45014 11.663 9.53531 11.3198 9.76359L11.3197 9.76361M13.3696 9.69395L11.3197 9.76361M14.4035 10.3578L14.3686 10.3935M14.4035 10.3578C14.4035 10.3578 14.4035 10.3578 14.4035 10.3577L14.3686 10.3935M14.4035 10.3578C14.6747 10.6227 14.9158 10.9441 15.1206 11.3123M14.3686 10.3935C14.6359 10.6547 14.8742 10.9721 15.0769 11.3367M15.1206 11.3123L15.0769 11.3367M15.1206 11.3123C15.1206 11.3123 15.1206 11.3123 15.1206 11.3124L15.0769 11.3367M11.3197 9.76361C11.1088 9.90413 10.862 10.0667 10.5866 10.2465C10.3558 10.3967 10.0409 10.5388 9.64902 10.6681L9.64899 10.6681M11.3197 9.76361L9.64899 10.6681M9.64899 10.6681C9.26909 10.7937 8.88378 10.8572 8.50371 10.8572C8.12392 10.8572 7.7386 10.7937 7.35842 10.6681L7.3584 10.6681M9.64899 10.6681L7.3584 10.6681M7.3584 10.6681C6.96684 10.5389 6.65187 10.3968 6.42153 10.2466L7.3584 10.6681ZM1.41343 12.4107L1.41344 12.4107C1.53087 12.0359 1.69035 11.6664 1.88725 11.3124M1.41343 12.4107L3.63821 9.6941M1.41343 12.4107C1.30031 12.772 1.20581 13.1669 1.13247 13.5843L1.41343 12.4107ZM1.88725 11.3124L1.93095 11.3367L1.88725 11.3124C1.88725 11.3124 1.88725 11.3124 1.88725 11.3124ZM1.88725 11.3124C2.09191 10.9442 2.33301 10.623 2.60419 10.3579L2.60419 10.3579C2.88911 10.0794 3.23718 9.85629 3.63821 9.6941M3.63821 9.6941L3.65696 9.74043L3.63822 9.6941C3.63822 9.6941 3.63821 9.6941 3.63821 9.6941ZM1.85231 18.1841L1.8523 18.1841C1.25234 17.6004 0.95 16.81 0.95 15.8397C0.95 15.4696 0.962112 15.1033 0.986073 14.7511C0.986073 14.7511 0.986074 14.7511 0.986074 14.7511L1.85231 18.1841ZM4.06384 10.788C4.30224 10.6916 4.57068 10.6378 4.86316 10.6284C4.90033 10.6491 4.96196 10.6858 5.05675 10.7489L5.05677 10.7489C5.27362 10.8933 5.52354 11.058 5.7998 11.2382L5.79983 11.2382C6.11574 11.444 6.52101 11.6287 7.00288 11.7876C7.49756 11.951 8.00242 12.0341 8.50385 12.0341C9.00527 12.0341 9.51027 11.951 10.0047 11.7878C10.4869 11.6286 10.8921 11.444 11.2084 11.2379L11.2085 11.2379C11.4911 11.0534 11.734 10.8934 11.9509 10.7489C12.0457 10.6859 12.1074 10.6491 12.1445 10.6284C12.4371 10.6378 12.7056 10.6916 12.9441 10.788C13.2073 10.8944 13.4293 11.0359 13.6048 11.2074C13.7941 11.3924 13.9664 11.6229 14.1167 11.893L14.1167 11.893C14.2747 12.1769 14.4021 12.4717 14.4951 12.7688C14.5928 13.0805 14.6751 13.4247 14.7396 13.7917C14.8047 14.1636 14.8488 14.5126 14.8705 14.8294H14.8704L14.8707 14.8325L14.8707 14.8328C14.893 15.1567 14.9042 15.4955 14.9043 15.8397C14.9042 16.4921 14.7242 16.9777 14.3595 17.3322L14.3944 17.368L14.3595 17.3322C13.9868 17.6946 13.4905 17.8731 12.8351 17.8731H4.17329C3.51776 17.8731 3.02143 17.6945 2.64888 17.3323C2.2842 16.9777 2.10419 16.492 2.10419 15.8397C2.10419 15.4964 2.11528 15.1576 2.13743 14.8324L2.13743 14.8323C2.15898 14.5142 2.20306 14.1642 2.26855 13.7919L2.2193 13.7832L2.26855 13.7919C2.33314 13.4245 2.41529 13.0802 2.51282 12.7689C2.60605 12.4716 2.73328 12.1769 2.89117 11.8929C3.0414 11.6231 3.21372 11.3925 3.40302 11.2074L3.40302 11.2074C3.57848 11.0358 3.80056 10.8944 4.06384 10.788L4.06384 10.788Z" fill="#0891A4" stroke="#474747" stroke-width="0.1"/>
</svg>
