<svg width="24" height="27" viewBox="0 0 24 27" fill="none" xmlns="http://www.w3.org/2000/svg">
<path d="M9.06669 6.80066C5.74816 6.80066 3.05124 9.49759 3.05124 12.8161V15.7136C3.05124 16.3251 2.79057 17.2575 2.47977 17.7789L1.32681 19.6938C0.614978 20.8768 1.10624 22.1902 2.40959 22.6313C6.73069 24.075 11.3927 24.075 15.7138 22.6313C16.9269 22.2303 17.4582 20.7966 16.7965 19.6938L15.6436 17.7789C15.3428 17.2575 15.0821 16.3251 15.0821 15.7136V12.8161C15.0821 9.50761 12.3752 6.80066 9.06669 6.80066Z" stroke="#2B2A2A" stroke-width="1.5" stroke-miterlimit="10" stroke-linecap="round"/>
<path d="M10.9228 7.09088C10.612 7.00065 10.2912 6.93047 9.96031 6.89037C8.99784 6.77006 8.07547 6.84024 7.21326 7.09088C7.504 6.34898 8.22586 5.82764 9.06802 5.82764C9.91018 5.82764 10.632 6.34898 10.9228 7.09088Z" stroke="#2B2A2A" stroke-width="1.5" stroke-miterlimit="10" stroke-linecap="round" stroke-linejoin="round"/>
<path d="M12.0735 22.9921C12.0735 24.6463 10.72 25.9998 9.06576 25.9998C8.24364 25.9998 7.48169 25.6589 6.94029 25.1175C6.3989 24.5761 6.05803 23.8142 6.05803 22.9921" stroke="#2B2A2A" stroke-width="1.5" stroke-miterlimit="10"/>
<circle cx="17.1378" cy="6.27567" r="6.27567" fill="#ECF1F1"/>
<path d="M18.9303 8.4737V9.18958H15.9551V8.4737H17.0448V5.21156C17.0448 5.08258 17.0485 4.94972 17.0559 4.81299L16.2824 5.48631C16.2378 5.52243 16.1931 5.54565 16.1485 5.55597C16.1064 5.5637 16.0654 5.5637 16.0258 5.55597C15.9886 5.54823 15.9551 5.53533 15.9254 5.51727C15.8956 5.49663 15.8733 5.4747 15.8584 5.45148L15.5683 5.03743L17.2084 3.5863H17.9634V8.4737H18.9303Z" fill="#FB8746"/>
</svg>
