<svg width="19" height="22" viewBox="0 0 19 22" fill="none" xmlns="http://www.w3.org/2000/svg">
<path d="M9.08985 10.5453C10.5385 10.5453 11.7928 10.0257 12.818 9.00057C13.8428 7.97556 14.3625 6.72141 14.3625 5.2725C14.3625 3.8241 13.8429 2.56978 12.8178 1.54444C11.7927 0.519601 10.5384 0 9.08985 0C7.64099 0 6.38687 0.519601 5.3619 1.54461C4.33693 2.56961 3.81718 3.82394 3.81718 5.2725C3.81718 6.72141 4.33693 7.97573 5.3619 9.00074C6.38721 10.0256 7.64149 10.5453 9.08985 10.5453ZM6.26913 2.45169C7.0556 1.66519 7.97819 1.28288 9.08985 1.28288C10.2013 1.28288 11.1241 1.66519 11.9107 2.45169C12.6972 3.23836 13.0797 4.16115 13.0797 5.2725C13.0797 6.38419 12.6972 7.30681 11.9107 8.09348C11.1241 8.88015 10.2013 9.26246 9.08985 9.26246C7.97853 9.26246 7.05594 8.87998 6.26913 8.09348C5.48249 7.30698 5.10002 6.38419 5.10002 5.2725C5.10002 4.16115 5.48249 3.23836 6.26913 2.45169Z" fill="#2B2A2A"/>
<path d="M18.3189 16.8805C18.2892 16.4487 18.2291 15.9778 18.1406 15.4804C18.0513 14.9794 17.9362 14.5057 17.7985 14.0728C17.6561 13.6253 17.4629 13.1834 17.2236 12.76C16.9755 12.3205 16.684 11.9377 16.3569 11.6228C16.0148 11.2933 15.596 11.0284 15.1117 10.8352C14.6291 10.643 14.0942 10.5456 13.5221 10.5456C13.2974 10.5456 13.0801 10.6384 12.6605 10.9135C12.4022 11.083 12.1001 11.2791 11.7629 11.496C11.4746 11.681 11.084 11.8542 10.6015 12.0111C10.1308 12.1644 9.65292 12.2422 9.18105 12.2422C8.70951 12.2422 8.23159 12.1644 7.76056 12.0111C7.27861 11.8544 6.88784 11.6811 6.60002 11.4962C6.26601 11.2813 5.96374 11.0852 5.70161 10.9133C5.2823 10.6383 5.065 10.5455 4.84032 10.5455C4.26802 10.5455 3.73334 10.643 3.25089 10.8354C2.76693 11.0283 2.34795 11.2932 2.00555 11.623C1.67843 11.9381 1.38691 12.3206 1.13905 12.76C0.900086 13.1834 0.706635 13.6252 0.564233 14.073C0.426701 14.5059 0.311672 14.9794 0.222335 15.4804C0.13367 15.9771 0.0737198 16.4482 0.0439968 16.881C0.0147775 17.3041 0 17.7445 0 18.1894C0 19.346 0.36524 20.2824 1.08548 20.9729C1.79681 21.6544 2.73787 21.9999 3.88263 21.9999H14.4808C15.6252 21.9999 16.5663 21.6544 17.2778 20.9729C17.9982 20.2829 18.3634 19.3462 18.3634 18.1892C18.3633 17.7428 18.3483 17.3024 18.3189 16.8805ZM16.3885 20.0322C15.9184 20.4825 15.2944 20.7014 14.4806 20.7014H3.88263C3.06869 20.7014 2.44467 20.4825 1.97482 20.0324C1.51386 19.5906 1.28984 18.9877 1.28984 18.1894C1.28984 17.7742 1.30345 17.3643 1.33065 16.9708C1.35718 16.5847 1.41142 16.1605 1.49186 15.7098C1.57129 15.2647 1.67238 14.847 1.79262 14.4689C1.90798 14.1063 2.06533 13.7472 2.26046 13.4013C2.44669 13.0717 2.66096 12.7889 2.89741 12.561C3.11856 12.3478 3.39732 12.1734 3.72579 12.0425C4.02957 11.9215 4.37096 11.8552 4.74157 11.8453C4.78675 11.8694 4.86718 11.9156 4.99749 12.0011C5.26265 12.1751 5.56828 12.3735 5.90615 12.5908C6.287 12.8352 6.77768 13.056 7.36392 13.2465C7.96325 13.4416 8.5745 13.5406 9.18122 13.5406C9.78794 13.5406 10.3994 13.4416 10.9984 13.2467C11.5851 13.0558 12.0756 12.8352 12.457 12.5904C12.8027 12.368 13.0998 12.1752 13.3649 12.0011C13.4953 11.9158 13.5757 11.8694 13.6209 11.8453C13.9916 11.8552 14.333 11.9215 14.637 12.0425C14.9653 12.1734 15.244 12.348 15.4652 12.561C15.7016 12.7887 15.9159 13.0715 16.1021 13.4015C16.2974 13.7472 16.455 14.1064 16.5702 14.4687C16.6906 14.8474 16.7918 15.2649 16.8711 15.7097C16.9513 16.1612 17.0058 16.5855 17.0323 16.9709V16.9713C17.0597 17.3633 17.0734 17.7731 17.0736 18.1894C17.0734 18.9878 16.8494 19.5906 16.3885 20.0322Z" fill="#2B2A2A"/>
</svg>
