<svg width="24" height="24" viewBox="0 0 24 24" fill="none" xmlns="http://www.w3.org/2000/svg">
<path d="M12 24.0004L9.27521 22.1878L5.97307 22.4394L4.54203 19.4583L1.56103 18.0273L1.81259 14.7253L0 12.0004L1.81259 9.27553L1.56103 5.97344L4.54203 4.54244L5.97302 1.56139L9.27516 1.813L12 0.000366211L14.7248 1.81296L18.027 1.56135L19.458 4.5424L22.439 5.97339L22.1874 9.27548L24 12.0003L22.1874 14.7252L22.439 18.0273L19.458 19.4583L18.027 22.4394L14.7248 22.1878L12 24.0004Z" fill="#FFDCAC"/>
<path d="M14.7248 22.1878L18.027 22.4394L19.4579 19.4583L22.439 18.0273L22.1874 14.7252L24 12.0004L22.1874 9.27553L22.439 5.97344L19.4579 4.5424L18.027 1.56139L14.7248 1.81296L12 0.000366211V24.0004L14.7248 22.1878Z" fill="#FFC702"/>
<path d="M11.9948 19.7039C7.74695 19.7039 4.29102 16.248 4.29102 12.0001C4.29102 7.7522 7.74695 4.29626 11.9948 4.29626C16.2427 4.29626 19.6987 7.7522 19.6987 12.0001C19.6987 16.248 16.2427 19.7039 11.9948 19.7039Z" fill="#4BB9EC"/>
<path d="M19.7038 12.0011C19.7038 7.75317 16.2479 4.29724 12 4.29724V19.7049C16.2479 19.7049 19.7038 16.2489 19.7038 12.0011Z" fill="#0095FF"/>
<path d="M11.2986 15.7907L8.00195 12.494L8.99238 11.5036L11.2986 13.8097L15.0054 10.1029L15.9959 11.0933L11.2986 15.7907Z" fill="#FFF5F5"/>
<path d="M12 15.0923L15.9969 11.0953L15.0065 10.1049L12 13.1114V15.0923Z" fill="#EFE2DD"/>
</svg>
