<svg width="22" height="22" viewBox="0 0 22 22" fill="none" xmlns="http://www.w3.org/2000/svg">
<path d="M10.74 16.7025H16.66C16.57 16.7825 16.48 16.8525 16.39 16.9325L12.12 20.1325C10.71 21.1825 8.41001 21.1825 6.99001 20.1325L2.71001 16.9325C1.77001 16.2325 1 14.6825 1 13.5125V6.1025C1 4.8825 1.93001 3.5325 3.07001 3.1025L8.05 1.2325C8.87 0.9225 10.23 0.9225 11.05 1.2325L16.02 3.1025C16.97 3.4625 17.78 4.4625 18.03 5.4825H10.73C10.51 5.4825 10.31 5.49251 10.12 5.49251C8.27 5.60251 7.78999 6.27249 7.78999 8.38249V13.8125C7.79999 16.1125 8.39001 16.7025 10.74 16.7025Z" stroke="#0891A4" stroke-width="1.5" stroke-linecap="round" stroke-linejoin="round"/>
<path d="M7.79999 10.1725H21" stroke="#0891A4" stroke-width="1.5" stroke-miterlimit="10" stroke-linecap="round" stroke-linejoin="round"/>
<path d="M21 8.37253V13.9225C20.98 16.1425 20.37 16.6925 18.06 16.6925H10.74C8.38999 16.6925 7.79999 16.1025 7.79999 13.7925V8.36252C7.79999 6.26252 8.27999 5.5925 10.13 5.4725C10.32 5.4725 10.52 5.46252 10.74 5.46252H18.06C20.41 5.47252 21 6.05253 21 8.37253Z" stroke="#0891A4" stroke-width="1.5" stroke-linecap="round" stroke-linejoin="round"/>
<path d="M10.32 14.2125H11.65" stroke="#0891A4" stroke-width="1.5" stroke-miterlimit="10" stroke-linecap="round" stroke-linejoin="round"/>
<path d="M13.75 14.2125H17.02" stroke="#0891A4" stroke-width="1.5" stroke-miterlimit="10" stroke-linecap="round" stroke-linejoin="round"/>
</svg>
