<svg width="21" height="22" viewBox="0 0 21 22" fill="none" xmlns="http://www.w3.org/2000/svg">
<path d="M17.6534 6.15209C17.6934 6.76209 17.6434 7.45209 17.5234 8.22209L16.7934 12.9121C16.1734 16.8221 14.3634 18.1421 10.4534 17.5321L5.76343 16.7921C4.41343 16.5821 3.37343 16.2221 2.61343 15.6821C1.16343 14.6721 0.743429 13.0121 1.14343 10.4521L1.88343 5.76209C2.50343 1.85209 4.31343 0.532094 8.22343 1.14209L12.9134 1.88209C16.0534 2.37209 17.5234 3.65209 17.6534 6.15209Z" stroke="#2B2A2A" stroke-width="1.5" stroke-linecap="round" stroke-linejoin="round"/>
<path d="M19.5233 12.4723L18.0233 16.9823C16.7733 20.7423 14.7733 21.7423 11.0133 20.4923L6.50328 18.9923C4.23328 18.2423 2.97328 17.2023 2.61328 15.6823C3.37328 16.2223 4.41328 16.5823 5.76328 16.7923L10.4533 17.5323C14.3633 18.1423 16.1733 16.8223 16.7933 12.9123L17.5233 8.22234C17.6433 7.45234 17.6933 6.76234 17.6533 6.15234C20.0433 7.42234 20.5633 9.34234 19.5233 12.4723Z" stroke="#2B2A2A" stroke-width="1.5" stroke-linecap="round" stroke-linejoin="round"/>
<path d="M7.26344 7.98195C8.22441 7.98195 9.00344 7.20293 9.00344 6.24195C9.00344 5.28098 8.22441 4.50195 7.26344 4.50195C6.30246 4.50195 5.52344 5.28098 5.52344 6.24195C5.52344 7.20293 6.30246 7.98195 7.26344 7.98195Z" stroke="#2B2A2A" stroke-width="1.5" stroke-linecap="round" stroke-linejoin="round"/>
</svg>
