<svg width="18" height="18" viewBox="0 0 18 18" fill="none" xmlns="http://www.w3.org/2000/svg">
<path d="M6.6 17H11.4C15.4 17 17 15.4 17 11.4V6.6C17 2.6 15.4 1 11.4 1H6.6C2.6 1 1 2.6 1 6.6V11.4C1 15.4 2.6 17 6.6 17Z" stroke="#0891A4" stroke-width="1.5" stroke-linecap="round" stroke-linejoin="round"/>
<path d="M12.7731 9.8289L12.9985 11.6793C12.9929 11.7073 12.9661 11.7743 12.842 11.8746C12.6947 11.9937 12.4572 12.1186 12.1283 12.231C11.4743 12.4546 10.545 12.6 9.49992 12.6C8.45483 12.6 7.52557 12.4546 6.87158 12.231C6.54262 12.1186 6.3051 11.9937 6.15784 11.8746C6.03375 11.7743 6.00693 11.7073 6.00133 11.6793L6.22679 9.82909L8.71338 10.6125C8.71341 10.6126 8.71344 10.6126 8.71347 10.6126C9.01887 10.7089 9.60167 10.8281 10.2861 10.6126L10.2862 10.6126L12.7731 9.8289ZM9.85502 5.45448L9.97524 5.07297L9.85502 5.45448L15.5209 7.23986C15.521 7.23987 15.521 7.23987 15.521 7.23988C15.5591 7.25191 15.5757 7.26891 15.584 7.28056C15.5938 7.29438 15.6 7.31271 15.6 7.33337C15.6 7.35403 15.5938 7.37236 15.584 7.38618C15.5757 7.39784 15.5591 7.41485 15.5209 7.42688L9.85486 9.21225C9.85485 9.21226 9.85483 9.21226 9.85482 9.21226C9.54677 9.30929 9.28292 9.2557 9.14483 9.21227C9.14478 9.21225 9.14474 9.21224 9.14469 9.21222L5.1723 7.9604L5.01931 7.91219L5.0194 7.91207L4.46663 7.7379L3.47883 7.42665L3.4788 7.42664C3.44079 7.41467 3.42424 7.39772 3.41601 7.3861C3.40623 7.37231 3.4 7.35397 3.4 7.33327C3.4 7.31256 3.40623 7.29422 3.41601 7.28043C3.42424 7.26881 3.44079 7.25186 3.4788 7.23989L3.47883 7.23988L9.14502 5.45448L9.1451 5.45445C9.37533 5.38186 9.62449 5.38183 9.85502 5.45448ZM4.18595 9.44131L4.30272 9.37266L4.41927 9.44576C4.50411 9.49898 4.54991 9.57996 4.54991 9.66669C4.54991 9.74539 4.51115 9.82081 4.43312 9.87756L4.2999 9.97443L4.16669 9.87756C4.08866 9.82081 4.0499 9.74539 4.0499 9.66669C4.0499 9.57575 4.09907 9.49238 4.18595 9.44131ZM3.82092 12.6L4.2999 10.3894L4.77889 12.6H3.82092Z" stroke="#0891A4" stroke-width="0.8"/>
</svg>
