<svg width="19" height="20" viewBox="0 0 19 20" fill="none" xmlns="http://www.w3.org/2000/svg">
<path d="M1 7.37007V12.6208C1 14.5501 1 14.5501 2.82002 15.7786L7.82508 18.6724C8.58038 19.1092 9.8089 19.1092 10.5551 18.6724L15.5602 15.7786C17.3802 14.5501 17.3802 14.5501 17.3802 12.6299V7.37007C17.3802 5.44995 17.3802 5.44995 15.5602 4.22144L10.5551 1.3276C9.8089 0.890799 8.58038 0.890799 7.82508 1.3276L2.82002 4.22144C1 5.44995 1 5.44995 1 7.37007Z" stroke="#0891A4" stroke-width="1.5" stroke-linecap="round" stroke-linejoin="round"/>
<path d="M9.18999 12.7296C10.6977 12.7296 11.92 11.5073 11.92 9.99956C11.92 8.49181 10.6977 7.26953 9.18999 7.26953C7.68224 7.26953 6.45996 8.49181 6.45996 9.99956C6.45996 11.5073 7.68224 12.7296 9.18999 12.7296Z" stroke="#0891A4" stroke-width="1.5" stroke-linecap="round" stroke-linejoin="round"/>
</svg>
