<svg width="18" height="18" viewBox="0 0 18 18" fill="none" xmlns="http://www.w3.org/2000/svg">
<g clip-path="url(#clip0_2_427)">
<path d="M6.6 17H11.4C15.4 17 17 15.4 17 11.4V6.6C17 2.6 15.4 1 11.4 1H6.6C2.6 1 1 2.6 1 6.6V11.4C1 15.4 2.6 17 6.6 17Z" stroke="#0891A4" stroke-width="1.5" stroke-linecap="round" stroke-linejoin="round"/>
<path d="M8.375 11.5375C9.44942 11.5375 10.5731 11.3396 11.4 10.9191V11.1875C11.4 11.1892 11.3992 11.2469 11.2681 11.3501C11.1411 11.4502 10.9356 11.5556 10.6505 11.6507C10.0841 11.8395 9.27942 11.9625 8.375 11.9625C7.47058 11.9625 6.66593 11.8395 6.09949 11.6507C5.81443 11.5556 5.60893 11.4502 5.48188 11.3501C5.35079 11.2469 5.35 11.1892 5.35 11.1875V10.9191C6.17693 11.3396 7.30058 11.5375 8.375 11.5375ZM12.4257 8.40588C12.3494 8.27874 12.2567 8.16121 12.1508 8.05287C12.6969 7.97138 13.2145 7.84071 13.65 7.65195V7.8125C13.65 7.81915 13.6337 7.92962 13.3422 8.08939C13.1236 8.20923 12.8121 8.31967 12.4257 8.40588ZM5.35 12.875V12.7141C5.66515 12.8508 6.02016 12.9558 6.39195 13.034C7.00758 13.1636 7.69449 13.225 8.375 13.225C9.05551 13.225 9.74242 13.1636 10.358 13.034C10.7298 12.9558 11.0849 12.8508 11.4 12.7141V12.875C11.4 12.8767 11.3992 12.9344 11.2681 13.0376C11.1411 13.1377 10.9356 13.2431 10.6505 13.3382C10.0841 13.527 9.27942 13.65 8.375 13.65C7.47058 13.65 6.66593 13.527 6.09949 13.3382C5.81443 13.2431 5.60893 13.1377 5.48188 13.0376C5.35079 12.9344 5.35 12.8767 5.35 12.875ZM13.65 6.125C13.65 6.12673 13.6492 6.18435 13.5181 6.2876C13.3911 6.38766 13.1856 6.49311 12.9005 6.58816C12.3341 6.77705 11.5294 6.9 10.625 6.9C9.72058 6.9 8.91593 6.77705 8.34949 6.58816C8.06443 6.49311 7.85893 6.38766 7.73188 6.2876C7.60079 6.18435 7.6 6.12673 7.6 6.125C7.6 6.12327 7.60079 6.06565 7.73188 5.9624C7.85893 5.86234 8.06443 5.75689 8.34949 5.66184C8.91593 5.47295 9.72058 5.35 10.625 5.35C11.5294 5.35 12.3341 5.47295 12.9005 5.66184C13.1856 5.75689 13.3911 5.86234 13.5181 5.9624C13.6492 6.06565 13.65 6.12327 13.65 6.125ZM13.65 9.5C13.65 9.50569 13.6364 9.6103 13.362 9.76514C13.1883 9.86313 12.952 9.95552 12.6625 10.0342V9.64354C13.0147 9.56712 13.3505 9.46716 13.65 9.3383V9.5ZM5.35 9.21875C5.35 9.14645 5.38368 9.04592 5.51092 8.92061C5.63939 8.79408 5.84324 8.66404 6.12335 8.54736C6.68205 8.31464 7.47801 8.1625 8.375 8.1625C9.27199 8.1625 10.068 8.31464 10.6266 8.54736C10.9068 8.66404 11.1106 8.79408 11.2391 8.92061C11.3663 9.04592 11.4 9.14645 11.4 9.21875C11.4 9.29105 11.3663 9.39158 11.2391 9.51689C11.1106 9.64342 10.9068 9.77346 10.6266 9.89014C10.068 10.1229 9.27199 10.275 8.375 10.275C7.47801 10.275 6.68205 10.1229 6.12335 9.89014C5.84324 9.77346 5.63939 9.64342 5.51092 9.51689C5.38368 9.39158 5.35 9.29105 5.35 9.21875Z" stroke="#0891A4" stroke-width="0.7"/>
</g>
<defs>
<clipPath id="clip0_2_427">
<rect width="18" height="18" fill="white"/>
</clipPath>
</defs>
</svg>
