<svg width="19" height="24" viewBox="0 0 19 24" fill="none" xmlns="http://www.w3.org/2000/svg">
<path d="M14.0738 17.4268L11.5872 14.709V11.4028H7.25138V14.71L4.79238 17.4268H14.0738Z" fill="#FFDDCE"/>
<path d="M13.6234 17.3784L11.3942 16.7239L9.42194 18.9855L6.01181 15.0748L2.38686 16.1388C0.971945 16.5541 0 17.8522 0 19.3269V22.8247C0 23.4741 0.526449 24.0005 1.17585 24.0005H2.77057L3.05796 23.7954H3.20744L3.49483 24.0005H15.3474L15.7692 23.6994H16.1191V20.7121C16.1191 19.1702 15.1029 17.8127 13.6234 17.3784Z" fill="#407093"/>
<path d="M16.4563 16.1381L12.8317 15.074L11.1467 17.0061L13.3984 17.6672C14.8132 18.0825 15.785 19.3807 15.785 20.8552V23.6989H16.0708V23.9999H17.6671C18.3165 23.9999 18.8429 23.4734 18.8429 22.8241V19.3261C18.8429 17.8516 17.8711 16.5534 16.4563 16.1381Z" fill="#365E7D"/>
<path d="M3.48633 24.0006V22.0774C3.48633 21.8773 3.32419 21.7152 3.12418 21.7152C2.92416 21.7152 2.76202 21.8773 2.76202 22.0774V24.0006H3.48633Z" fill="#365E7D"/>
<path d="M16.0617 24.0006V22.0774C16.0617 21.8773 15.8995 21.7152 15.6995 21.7152C15.4995 21.7152 15.3374 21.8773 15.3374 22.0774V24.0006H16.0617Z" fill="#365E7D"/>
<path d="M2.89327 7.08616L2.52198 6.67676H1.72839L1.3571 7.08616L0.867773 9.95817C0.821601 10.2292 1.03043 10.4767 1.30544 10.4767H2.94483C3.21985 10.4767 3.42867 10.2292 3.3825 9.95817L2.89327 7.08616Z" fill="#E4F6FF"/>
<path d="M2.48834 6.38822V2.75656C2.48834 2.55655 2.3262 2.39441 2.12619 2.39441C1.92617 2.39441 1.76403 2.55655 1.76403 2.75656V6.38822H2.48834Z" fill="#407093"/>
<path d="M11.4263 2.46472H11.3464H7.49157H7.41169C5.96036 2.46472 4.78386 3.64123 4.78386 5.09256V5.13395V7.62726L5.21843 8.01013H14.0541V5.13395V5.09256C14.0541 3.64127 12.8776 2.46472 11.4263 2.46472Z" fill="#EFC984"/>
<path d="M11.4331 2.46643H11.3532H11.013V8.01184H13.6597L14.0608 7.62897V5.13566V5.09427C14.0609 3.64298 12.8843 2.46643 11.4331 2.46643Z" fill="#EABC6B"/>
<path d="M9.42662 13.3154C9.4703 13.3154 9.51376 13.3147 9.55707 13.3132C10.5939 12.6547 11.2981 11.5195 11.3609 10.2154V5.62561H6.37499V6.83348C6.37499 7.27227 6.01926 7.62795 5.58051 7.62795H4.79152V8.92718C4.79152 9.25914 5.06062 9.5283 5.39263 9.5283C5.49735 9.5283 5.58262 9.61037 5.58918 9.7149C5.71593 11.7245 7.38504 13.3154 9.42662 13.3154Z" fill="#FFDDCE"/>
<path d="M13.2737 7.62905C12.8349 7.62905 12.4792 7.27337 12.4792 6.83457V5.62671H11.014V10.0984C10.9475 11.4799 10.1525 12.6697 9.00503 13.2928C9.14387 13.308 9.28463 13.3165 9.42751 13.3165C11.4691 13.3165 13.1382 11.7256 13.2649 9.716C13.2716 9.61147 13.3568 9.5294 13.4615 9.5294C13.7935 9.5294 14.0626 9.26029 14.0626 8.92828V7.62905H13.2737Z" fill="#FFCBBE"/>
<path d="M11.36 4.08385V3.18863C10.9189 3.18517 10.5623 2.82686 10.5623 2.38492V0.776091L10.2239 0.233893L9.54927 0.0193006C9.46837 -0.00643354 9.38151 -0.00643354 9.3006 0.0193006L1.95577 2.35548C1.54604 2.4858 1.58738 3.07857 2.01122 3.15076L9.42496 4.41342L11.36 4.08385Z" fill="#407093"/>
<path d="M11.3606 3.20275L10.2924 3.07061C9.71669 2.99941 9.13441 2.99941 8.55874 3.07065L4.4934 3.57371V5.38532C4.4934 5.58163 4.65254 5.74077 4.84885 5.74077H11.3606V3.20275Z" fill="#4A80AA"/>
<path d="M16.8926 2.35475L10.2224 0.233154V2.35878C10.2224 2.79546 10.5748 3.14955 11.0106 3.15297V4.1424L16.8371 3.15007C17.261 3.07779 17.3024 2.48506 16.8926 2.35475Z" fill="#365E7D"/>
<path d="M11.013 3.15942V5.74048H14.004C14.2003 5.74048 14.3594 5.58134 14.3594 5.38503V3.57337L11.013 3.15942Z" fill="#407093"/>
<path d="M2.89502 7.086H1.35889V6.07763C1.35889 5.86337 1.53256 5.6897 1.74683 5.6897H2.50704C2.72131 5.6897 2.89498 5.86337 2.89498 6.07763L2.89502 7.086Z" fill="#FFE07D"/>
<path d="M11.5892 13.4989C11.5892 14.9055 11.1809 16.2819 10.4139 17.4609L9.42214 18.9853L14.9552 15.6974L11.5892 13.4989Z" fill="#4A80AA"/>
<path d="M7.25475 13.4989C7.25475 14.9055 7.66308 16.2819 8.43013 17.4609L9.42186 18.9853L3.88878 15.6974L7.25475 13.4989Z" fill="#4A80AA"/>
<path d="M11.2714 15.6283C10.7023 15.7536 10.0788 15.8231 9.42445 15.8231C8.77017 15.8231 8.14655 15.7536 7.5775 15.6283C7.77507 16.2724 8.06143 16.8896 8.43268 17.4602L9.42445 18.9846L10.4162 17.4602C10.7875 16.8896 11.0738 16.2724 11.2714 15.6283Z" fill="#F4FBFF"/>
</svg>
