<svg width="18" height="18" viewBox="0 0 18 18" fill="none" xmlns="http://www.w3.org/2000/svg">
<path d="M17 9V13C17 15.4 15.4 17 13 17H5C2.6 17 1 15.4 1 13V9C1 6.824 2.312 5.304 4.352 5.048C4.56 5.016 4.776 5 5 5H13C13.208 5 13.408 5.00799 13.6 5.03999C15.664 5.27999 17 6.808 17 9Z" stroke="#0891A4" stroke-width="1.5" stroke-linecap="round" stroke-linejoin="round"/>
<path d="M13.6013 5.04C13.4093 5.008 13.2093 5.00001 13.0013 5.00001H5.0013C4.7773 5.00001 4.5613 5.01601 4.3533 5.04801C4.4653 4.82401 4.6253 4.61601 4.8173 4.42401L7.4173 1.816C8.5133 0.728 10.2893 0.728 11.3853 1.816L12.7853 3.23202C13.2973 3.73602 13.5693 4.376 13.6013 5.04Z" stroke="#0891A4" stroke-width="1.5" stroke-linecap="round" stroke-linejoin="round"/>
<path d="M17 9.40002H14.6C13.72 9.40002 13 10.12 13 11C13 11.88 13.72 12.6 14.6 12.6H17" stroke="#0891A4" stroke-width="1.5" stroke-linecap="round" stroke-linejoin="round"/>
</svg>
